<mxfile host="app.diagrams.net" modified="2023-09-14T11:48:55.517Z" agent="Mozilla/5.0 (Windows NT 10.0; Win64; x64) AppleWebKit/537.36 (KHTML, like Gecko) Chrome/116.0.0.0 Safari/537.36" etag="bfaa9LedTFT3OOn9nSNX" version="21.7.5" type="device">
  <diagram name="Strona-1" id="eziYVJ-0XZbdgDi_HlFr">
    <mxGraphModel dx="1050" dy="542" grid="0" gridSize="10" guides="1" tooltips="1" connect="1" arrows="1" fold="1" page="0" pageScale="1" pageWidth="827" pageHeight="1169" math="0" shadow="0">
      <root>
        <mxCell id="0" />
        <mxCell id="1" parent="0" />
        <mxCell id="T_EqhQz9shj-2T2z4Zsg-1" value="" style="ellipse;html=1;shape=startState;fillColor=#000000;strokeColor=default;" parent="1" vertex="1">
          <mxGeometry x="399" width="30" height="30" as="geometry" />
        </mxCell>
        <mxCell id="T_EqhQz9shj-2T2z4Zsg-2" value="" style="html=1;verticalAlign=bottom;endArrow=open;endSize=8;strokeColor=default;rounded=0;exitX=0.497;exitY=0.868;exitDx=0;exitDy=0;exitPerimeter=0;" parent="1" source="T_EqhQz9shj-2T2z4Zsg-1" edge="1">
          <mxGeometry relative="1" as="geometry">
            <mxPoint x="414" y="90" as="targetPoint" />
          </mxGeometry>
        </mxCell>
        <mxCell id="T_EqhQz9shj-2T2z4Zsg-3" value="Zgłoszenie uwag względem złgoszonych błędów" style="rounded=1;whiteSpace=wrap;html=1;" parent="1" vertex="1">
          <mxGeometry x="354" y="90" width="120" height="60" as="geometry" />
        </mxCell>
        <mxCell id="T_EqhQz9shj-2T2z4Zsg-4" value="" style="endArrow=classic;html=1;rounded=0;exitX=0.5;exitY=1;exitDx=0;exitDy=0;" parent="1" source="T_EqhQz9shj-2T2z4Zsg-3" target="T_EqhQz9shj-2T2z4Zsg-5" edge="1">
          <mxGeometry width="50" height="50" relative="1" as="geometry">
            <mxPoint x="390" y="260" as="sourcePoint" />
            <mxPoint x="414" y="200" as="targetPoint" />
          </mxGeometry>
        </mxCell>
        <mxCell id="T_EqhQz9shj-2T2z4Zsg-5" value="Wstępna analiza zasadności" style="rounded=1;whiteSpace=wrap;html=1;" parent="1" vertex="1">
          <mxGeometry x="354" y="200" width="120" height="60" as="geometry" />
        </mxCell>
        <mxCell id="T_EqhQz9shj-2T2z4Zsg-45" style="edgeStyle=none;curved=1;rounded=0;orthogonalLoop=1;jettySize=auto;html=1;entryX=0;entryY=0.5;entryDx=0;entryDy=0;fontSize=12;startSize=8;endSize=8;" parent="1" source="T_EqhQz9shj-2T2z4Zsg-6" target="T_EqhQz9shj-2T2z4Zsg-13" edge="1">
          <mxGeometry relative="1" as="geometry" />
        </mxCell>
        <mxCell id="T_EqhQz9shj-2T2z4Zsg-6" value="" style="rhombus;whiteSpace=wrap;html=1;" parent="1" vertex="1">
          <mxGeometry x="349" y="285" width="130" height="80" as="geometry" />
        </mxCell>
        <mxCell id="T_EqhQz9shj-2T2z4Zsg-7" value="" style="endArrow=classic;html=1;rounded=0;exitX=0.5;exitY=1;exitDx=0;exitDy=0;entryX=0.5;entryY=0;entryDx=0;entryDy=0;" parent="1" source="T_EqhQz9shj-2T2z4Zsg-5" target="T_EqhQz9shj-2T2z4Zsg-6" edge="1">
          <mxGeometry width="50" height="50" relative="1" as="geometry">
            <mxPoint x="390" y="250" as="sourcePoint" />
            <mxPoint x="440" y="200" as="targetPoint" />
          </mxGeometry>
        </mxCell>
        <mxCell id="T_EqhQz9shj-2T2z4Zsg-9" value="" style="endArrow=classic;html=1;rounded=0;exitX=0.5;exitY=1;exitDx=0;exitDy=0;" parent="1" source="T_EqhQz9shj-2T2z4Zsg-6" edge="1">
          <mxGeometry width="50" height="50" relative="1" as="geometry">
            <mxPoint x="400" y="430" as="sourcePoint" />
            <mxPoint x="414" y="400" as="targetPoint" />
          </mxGeometry>
        </mxCell>
        <mxCell id="T_EqhQz9shj-2T2z4Zsg-10" value="NIE" style="text;html=1;strokeColor=none;fillColor=none;align=center;verticalAlign=middle;whiteSpace=wrap;rounded=0;" parent="1" vertex="1">
          <mxGeometry x="510" y="290" width="60" height="30" as="geometry" />
        </mxCell>
        <mxCell id="T_EqhQz9shj-2T2z4Zsg-11" value="TAK" style="text;html=1;strokeColor=none;fillColor=none;align=center;verticalAlign=middle;whiteSpace=wrap;rounded=0;" parent="1" vertex="1">
          <mxGeometry x="419" y="360" width="60" height="30" as="geometry" />
        </mxCell>
        <mxCell id="T_EqhQz9shj-2T2z4Zsg-12" value="Wprowadzenie zmian w kodzie źródłowym aplikacji" style="rounded=1;whiteSpace=wrap;html=1;" parent="1" vertex="1">
          <mxGeometry x="354" y="400" width="120" height="60" as="geometry" />
        </mxCell>
        <mxCell id="T_EqhQz9shj-2T2z4Zsg-13" value="Archiwizacja zapytania o błędzie" style="rounded=1;whiteSpace=wrap;html=1;" parent="1" vertex="1">
          <mxGeometry x="601" y="295" width="120" height="60" as="geometry" />
        </mxCell>
        <mxCell id="T_EqhQz9shj-2T2z4Zsg-14" value="" style="endArrow=classic;html=1;rounded=0;exitX=0.56;exitY=1.016;exitDx=0;exitDy=0;exitPerimeter=0;" parent="1" source="T_EqhQz9shj-2T2z4Zsg-13" target="T_EqhQz9shj-2T2z4Zsg-15" edge="1">
          <mxGeometry width="50" height="50" relative="1" as="geometry">
            <mxPoint x="400" y="410" as="sourcePoint" />
            <mxPoint x="667" y="380" as="targetPoint" />
          </mxGeometry>
        </mxCell>
        <mxCell id="T_EqhQz9shj-2T2z4Zsg-15" value="" style="ellipse;html=1;shape=endState;fillColor=#000000;strokeColor=#000000;" parent="1" vertex="1">
          <mxGeometry x="654" y="379.9999999999999" width="30" height="30" as="geometry" />
        </mxCell>
        <mxCell id="T_EqhQz9shj-2T2z4Zsg-16" value="" style="endArrow=classic;html=1;rounded=0;exitX=0.5;exitY=1;exitDx=0;exitDy=0;" parent="1" source="T_EqhQz9shj-2T2z4Zsg-12" target="T_EqhQz9shj-2T2z4Zsg-17" edge="1">
          <mxGeometry width="50" height="50" relative="1" as="geometry">
            <mxPoint x="400" y="510" as="sourcePoint" />
            <mxPoint x="414" y="480" as="targetPoint" />
          </mxGeometry>
        </mxCell>
        <mxCell id="T_EqhQz9shj-2T2z4Zsg-17" value="Analiza jakościowa wykonanego zadania&amp;nbsp;" style="rounded=1;whiteSpace=wrap;html=1;" parent="1" vertex="1">
          <mxGeometry x="354" y="479.9999999999999" width="120" height="60" as="geometry" />
        </mxCell>
        <mxCell id="T_EqhQz9shj-2T2z4Zsg-44" style="edgeStyle=none;curved=1;rounded=0;orthogonalLoop=1;jettySize=auto;html=1;entryX=0.5;entryY=0;entryDx=0;entryDy=0;fontSize=12;startSize=8;endSize=8;" parent="1" source="T_EqhQz9shj-2T2z4Zsg-18" target="T_EqhQz9shj-2T2z4Zsg-24" edge="1">
          <mxGeometry relative="1" as="geometry" />
        </mxCell>
        <mxCell id="T_EqhQz9shj-2T2z4Zsg-18" value="" style="rhombus;whiteSpace=wrap;html=1;" parent="1" vertex="1">
          <mxGeometry x="374" y="560" width="80" height="80" as="geometry" />
        </mxCell>
        <mxCell id="T_EqhQz9shj-2T2z4Zsg-19" value="" style="endArrow=classic;html=1;rounded=0;exitX=0.5;exitY=1;exitDx=0;exitDy=0;" parent="1" source="T_EqhQz9shj-2T2z4Zsg-17" target="T_EqhQz9shj-2T2z4Zsg-18" edge="1">
          <mxGeometry width="50" height="50" relative="1" as="geometry">
            <mxPoint x="400" y="600" as="sourcePoint" />
            <mxPoint x="450" y="550" as="targetPoint" />
          </mxGeometry>
        </mxCell>
        <mxCell id="T_EqhQz9shj-2T2z4Zsg-20" value="" style="endArrow=classic;html=1;rounded=0;entryX=1;entryY=0.5;entryDx=0;entryDy=0;exitX=1;exitY=0.5;exitDx=0;exitDy=0;edgeStyle=orthogonalEdgeStyle;" parent="1" source="T_EqhQz9shj-2T2z4Zsg-18" target="T_EqhQz9shj-2T2z4Zsg-12" edge="1">
          <mxGeometry width="50" height="50" relative="1" as="geometry">
            <mxPoint x="400" y="600" as="sourcePoint" />
            <mxPoint x="450" y="550" as="targetPoint" />
            <Array as="points">
              <mxPoint x="598" y="600" />
              <mxPoint x="598" y="430" />
            </Array>
          </mxGeometry>
        </mxCell>
        <mxCell id="T_EqhQz9shj-2T2z4Zsg-21" value="Niespełnienie wymagań" style="text;html=1;strokeColor=none;fillColor=none;align=center;verticalAlign=middle;whiteSpace=wrap;rounded=0;" parent="1" vertex="1">
          <mxGeometry x="490" y="565" width="60" height="30" as="geometry" />
        </mxCell>
        <mxCell id="T_EqhQz9shj-2T2z4Zsg-23" value="Spełnienie wymagań" style="text;html=1;strokeColor=none;fillColor=none;align=center;verticalAlign=middle;whiteSpace=wrap;rounded=0;" parent="1" vertex="1">
          <mxGeometry x="419" y="636" width="60" height="30" as="geometry" />
        </mxCell>
        <mxCell id="T_EqhQz9shj-2T2z4Zsg-24" value="Analiza jakościowa zmiany" style="rounded=1;whiteSpace=wrap;html=1;" parent="1" vertex="1">
          <mxGeometry x="354" y="680" width="120" height="60" as="geometry" />
        </mxCell>
        <mxCell id="T_EqhQz9shj-2T2z4Zsg-25" value="" style="endArrow=classic;html=1;rounded=0;exitX=0.5;exitY=1;exitDx=0;exitDy=0;" parent="1" source="T_EqhQz9shj-2T2z4Zsg-24" target="T_EqhQz9shj-2T2z4Zsg-26" edge="1">
          <mxGeometry width="50" height="50" relative="1" as="geometry">
            <mxPoint x="400" y="840" as="sourcePoint" />
            <mxPoint x="420" y="760" as="targetPoint" />
          </mxGeometry>
        </mxCell>
        <mxCell id="T_EqhQz9shj-2T2z4Zsg-41" style="edgeStyle=none;curved=1;rounded=0;orthogonalLoop=1;jettySize=auto;html=1;exitX=0.5;exitY=1;exitDx=0;exitDy=0;entryX=0.5;entryY=0;entryDx=0;entryDy=0;fontSize=12;startSize=8;endSize=8;" parent="1" source="T_EqhQz9shj-2T2z4Zsg-26" target="T_EqhQz9shj-2T2z4Zsg-27" edge="1">
          <mxGeometry relative="1" as="geometry" />
        </mxCell>
        <mxCell id="T_EqhQz9shj-2T2z4Zsg-26" value="Testowanie" style="rounded=1;whiteSpace=wrap;html=1;" parent="1" vertex="1">
          <mxGeometry x="354" y="760" width="120" height="60" as="geometry" />
        </mxCell>
        <mxCell id="T_EqhQz9shj-2T2z4Zsg-43" style="edgeStyle=none;curved=1;rounded=0;orthogonalLoop=1;jettySize=auto;html=1;exitX=0.5;exitY=1;exitDx=0;exitDy=0;entryX=0.5;entryY=0;entryDx=0;entryDy=0;fontSize=12;startSize=8;endSize=8;" parent="1" source="T_EqhQz9shj-2T2z4Zsg-27" target="T_EqhQz9shj-2T2z4Zsg-33" edge="1">
          <mxGeometry relative="1" as="geometry" />
        </mxCell>
        <mxCell id="T_EqhQz9shj-2T2z4Zsg-27" value="Zatwierdzenie zmian" style="rhombus;whiteSpace=wrap;html=1;" parent="1" vertex="1">
          <mxGeometry x="362" y="840" width="104" height="80" as="geometry" />
        </mxCell>
        <mxCell id="T_EqhQz9shj-2T2z4Zsg-29" value="" style="endArrow=classic;html=1;rounded=0;exitX=0;exitY=0.5;exitDx=0;exitDy=0;entryX=0;entryY=0.5;entryDx=0;entryDy=0;edgeStyle=orthogonalEdgeStyle;" parent="1" source="T_EqhQz9shj-2T2z4Zsg-27" target="T_EqhQz9shj-2T2z4Zsg-12" edge="1">
          <mxGeometry width="50" height="50" relative="1" as="geometry">
            <mxPoint x="400" y="830" as="sourcePoint" />
            <mxPoint x="350" y="420" as="targetPoint" />
            <Array as="points">
              <mxPoint x="298" y="880" />
              <mxPoint x="298" y="430" />
            </Array>
          </mxGeometry>
        </mxCell>
        <mxCell id="T_EqhQz9shj-2T2z4Zsg-30" value="NIE" style="text;html=1;strokeColor=none;fillColor=none;align=center;verticalAlign=middle;whiteSpace=wrap;rounded=0;" parent="1" vertex="1">
          <mxGeometry x="299" y="850" width="60" height="30" as="geometry" />
        </mxCell>
        <mxCell id="T_EqhQz9shj-2T2z4Zsg-32" value="TAK" style="text;html=1;strokeColor=none;fillColor=none;align=center;verticalAlign=middle;whiteSpace=wrap;rounded=0;" parent="1" vertex="1">
          <mxGeometry x="403" y="920" width="60" height="30" as="geometry" />
        </mxCell>
        <mxCell id="T_EqhQz9shj-2T2z4Zsg-33" value="Archiwizacja danych dotyczących konfiguracji nowej wersji" style="rounded=1;whiteSpace=wrap;html=1;" parent="1" vertex="1">
          <mxGeometry x="354" y="960" width="120" height="60" as="geometry" />
        </mxCell>
        <mxCell id="T_EqhQz9shj-2T2z4Zsg-34" value="" style="endArrow=classic;html=1;rounded=0;exitX=0.5;exitY=1;exitDx=0;exitDy=0;" parent="1" source="T_EqhQz9shj-2T2z4Zsg-33" target="T_EqhQz9shj-2T2z4Zsg-35" edge="1">
          <mxGeometry width="50" height="50" relative="1" as="geometry">
            <mxPoint x="400" y="990" as="sourcePoint" />
            <mxPoint x="420" y="1050" as="targetPoint" />
          </mxGeometry>
        </mxCell>
        <mxCell id="T_EqhQz9shj-2T2z4Zsg-35" value="Zatwierdzenie oraz wprowadzenie zmian w ostatecznej wersji.&amp;nbsp;" style="rounded=1;whiteSpace=wrap;html=1;" parent="1" vertex="1">
          <mxGeometry x="354" y="1060" width="120" height="60" as="geometry" />
        </mxCell>
        <mxCell id="T_EqhQz9shj-2T2z4Zsg-36" value="" style="endArrow=classic;html=1;rounded=0;exitX=0.5;exitY=1;exitDx=0;exitDy=0;" parent="1" source="T_EqhQz9shj-2T2z4Zsg-35" target="T_EqhQz9shj-2T2z4Zsg-37" edge="1">
          <mxGeometry width="50" height="50" relative="1" as="geometry">
            <mxPoint x="400" y="1180" as="sourcePoint" />
            <mxPoint x="420" y="1120" as="targetPoint" />
          </mxGeometry>
        </mxCell>
        <mxCell id="T_EqhQz9shj-2T2z4Zsg-37" value="" style="ellipse;html=1;shape=endState;fillColor=#000000;strokeColor=#000000;" parent="1" vertex="1">
          <mxGeometry x="399" y="1153" width="30" height="30" as="geometry" />
        </mxCell>
      </root>
    </mxGraphModel>
  </diagram>
</mxfile>
